<mxfile host="app.diagrams.net" modified="2024-05-26T20:48:19.130Z" agent="Mozilla/5.0 (Windows NT 10.0; Win64; x64; rv:126.0) Gecko/20100101 Firefox/126.0" etag="MLzRkHtenVo53756pQT7" version="24.0.2" type="github">
  <diagram id="R2lEEEUBdFMjLlhIrx00" name="Page-1">
    <mxGraphModel dx="993" dy="1548" grid="1" gridSize="10" guides="1" tooltips="1" connect="1" arrows="1" fold="1" page="1" pageScale="1" pageWidth="850" pageHeight="1100" math="0" shadow="0" extFonts="Permanent Marker^https://fonts.googleapis.com/css?family=Permanent+Marker">
      <root>
        <mxCell id="0" />
        <mxCell id="1" parent="0" />
        <mxCell id="V21aiv9WlOXdOeAyt_kI-1" value="User" style="whiteSpace=wrap;html=1;aspect=fixed;" vertex="1" parent="1">
          <mxGeometry x="160" y="80" width="80" height="80" as="geometry" />
        </mxCell>
        <mxCell id="V21aiv9WlOXdOeAyt_kI-2" value="Review" style="whiteSpace=wrap;html=1;aspect=fixed;" vertex="1" parent="1">
          <mxGeometry x="410" y="80" width="80" height="80" as="geometry" />
        </mxCell>
        <mxCell id="V21aiv9WlOXdOeAyt_kI-3" value="Restaurant" style="whiteSpace=wrap;html=1;aspect=fixed;" vertex="1" parent="1">
          <mxGeometry x="650" y="80" width="80" height="80" as="geometry" />
        </mxCell>
        <mxCell id="V21aiv9WlOXdOeAyt_kI-8" value="" style="edgeStyle=orthogonalEdgeStyle;rounded=0;orthogonalLoop=1;jettySize=auto;html=1;" edge="1" parent="1" source="V21aiv9WlOXdOeAyt_kI-4" target="V21aiv9WlOXdOeAyt_kI-1">
          <mxGeometry relative="1" as="geometry" />
        </mxCell>
        <mxCell id="V21aiv9WlOXdOeAyt_kI-4" value="Writes" style="rhombus;whiteSpace=wrap;html=1;" vertex="1" parent="1">
          <mxGeometry x="280" y="80" width="80" height="80" as="geometry" />
        </mxCell>
        <mxCell id="V21aiv9WlOXdOeAyt_kI-10" value="" style="edgeStyle=orthogonalEdgeStyle;rounded=0;orthogonalLoop=1;jettySize=auto;html=1;" edge="1" parent="1" source="V21aiv9WlOXdOeAyt_kI-5" target="V21aiv9WlOXdOeAyt_kI-2">
          <mxGeometry relative="1" as="geometry" />
        </mxCell>
        <mxCell id="V21aiv9WlOXdOeAyt_kI-5" value="Reviewed In" style="rhombus;whiteSpace=wrap;html=1;" vertex="1" parent="1">
          <mxGeometry x="530" y="80" width="80" height="80" as="geometry" />
        </mxCell>
        <mxCell id="V21aiv9WlOXdOeAyt_kI-6" value="&lt;div&gt;Tag&lt;/div&gt;" style="whiteSpace=wrap;html=1;aspect=fixed;" vertex="1" parent="1">
          <mxGeometry x="650" y="320" width="80" height="80" as="geometry" />
        </mxCell>
        <mxCell id="V21aiv9WlOXdOeAyt_kI-11" value="" style="edgeStyle=orthogonalEdgeStyle;rounded=0;orthogonalLoop=1;jettySize=auto;html=1;" edge="1" parent="1" source="V21aiv9WlOXdOeAyt_kI-7" target="V21aiv9WlOXdOeAyt_kI-6">
          <mxGeometry relative="1" as="geometry" />
        </mxCell>
        <mxCell id="V21aiv9WlOXdOeAyt_kI-7" value="Categorized In" style="rhombus;whiteSpace=wrap;html=1;" vertex="1" parent="1">
          <mxGeometry x="645" y="210" width="90" height="80" as="geometry" />
        </mxCell>
        <mxCell id="V21aiv9WlOXdOeAyt_kI-12" value="" style="endArrow=none;html=1;rounded=0;entryX=1;entryY=0.5;entryDx=0;entryDy=0;exitX=0;exitY=0.5;exitDx=0;exitDy=0;" edge="1" parent="1" source="V21aiv9WlOXdOeAyt_kI-2" target="V21aiv9WlOXdOeAyt_kI-4">
          <mxGeometry width="50" height="50" relative="1" as="geometry">
            <mxPoint x="390" y="390" as="sourcePoint" />
            <mxPoint x="390" y="170" as="targetPoint" />
          </mxGeometry>
        </mxCell>
        <mxCell id="V21aiv9WlOXdOeAyt_kI-13" value="" style="endArrow=none;html=1;rounded=0;entryX=1;entryY=0.5;entryDx=0;entryDy=0;exitX=0;exitY=0.5;exitDx=0;exitDy=0;" edge="1" parent="1" source="V21aiv9WlOXdOeAyt_kI-3" target="V21aiv9WlOXdOeAyt_kI-5">
          <mxGeometry width="50" height="50" relative="1" as="geometry">
            <mxPoint x="390" y="270" as="sourcePoint" />
            <mxPoint x="440" y="220" as="targetPoint" />
          </mxGeometry>
        </mxCell>
        <mxCell id="V21aiv9WlOXdOeAyt_kI-14" value="" style="endArrow=none;html=1;rounded=0;entryX=0.5;entryY=1;entryDx=0;entryDy=0;exitX=0.5;exitY=0;exitDx=0;exitDy=0;" edge="1" parent="1" source="V21aiv9WlOXdOeAyt_kI-7" target="V21aiv9WlOXdOeAyt_kI-3">
          <mxGeometry width="50" height="50" relative="1" as="geometry">
            <mxPoint x="390" y="270" as="sourcePoint" />
            <mxPoint x="440" y="220" as="targetPoint" />
          </mxGeometry>
        </mxCell>
        <mxCell id="V21aiv9WlOXdOeAyt_kI-15" value="email" style="ellipse;whiteSpace=wrap;html=1;" vertex="1" parent="1">
          <mxGeometry x="40" y="160" width="60" height="40" as="geometry" />
        </mxCell>
        <mxCell id="V21aiv9WlOXdOeAyt_kI-16" value="password hash" style="ellipse;whiteSpace=wrap;html=1;" vertex="1" parent="1">
          <mxGeometry x="60" y="210" width="60" height="40" as="geometry" />
        </mxCell>
        <mxCell id="V21aiv9WlOXdOeAyt_kI-17" value="user_id" style="ellipse;whiteSpace=wrap;html=1;" vertex="1" parent="1">
          <mxGeometry x="50" y="90" width="60" height="40" as="geometry" />
        </mxCell>
        <mxCell id="V21aiv9WlOXdOeAyt_kI-18" value="created_on" style="ellipse;whiteSpace=wrap;html=1;" vertex="1" parent="1">
          <mxGeometry x="140" y="230" width="60" height="40" as="geometry" />
        </mxCell>
        <mxCell id="V21aiv9WlOXdOeAyt_kI-19" value="username" style="ellipse;whiteSpace=wrap;html=1;" vertex="1" parent="1">
          <mxGeometry x="80" y="20" width="60" height="40" as="geometry" />
        </mxCell>
        <mxCell id="V21aiv9WlOXdOeAyt_kI-20" value="" style="endArrow=none;html=1;rounded=0;entryX=0.5;entryY=1;entryDx=0;entryDy=0;exitX=0.5;exitY=0;exitDx=0;exitDy=0;" edge="1" parent="1" source="V21aiv9WlOXdOeAyt_kI-18" target="V21aiv9WlOXdOeAyt_kI-1">
          <mxGeometry width="50" height="50" relative="1" as="geometry">
            <mxPoint x="320" y="230" as="sourcePoint" />
            <mxPoint x="370" y="180" as="targetPoint" />
          </mxGeometry>
        </mxCell>
        <mxCell id="V21aiv9WlOXdOeAyt_kI-21" value="" style="endArrow=none;html=1;rounded=0;entryX=0;entryY=1;entryDx=0;entryDy=0;exitX=1;exitY=0.275;exitDx=0;exitDy=0;exitPerimeter=0;" edge="1" parent="1" source="V21aiv9WlOXdOeAyt_kI-16" target="V21aiv9WlOXdOeAyt_kI-1">
          <mxGeometry width="50" height="50" relative="1" as="geometry">
            <mxPoint x="180" y="240" as="sourcePoint" />
            <mxPoint x="210" y="170" as="targetPoint" />
          </mxGeometry>
        </mxCell>
        <mxCell id="V21aiv9WlOXdOeAyt_kI-22" value="" style="endArrow=none;html=1;rounded=0;entryX=0;entryY=0.75;entryDx=0;entryDy=0;exitX=1;exitY=0.5;exitDx=0;exitDy=0;" edge="1" parent="1" source="V21aiv9WlOXdOeAyt_kI-15" target="V21aiv9WlOXdOeAyt_kI-1">
          <mxGeometry width="50" height="50" relative="1" as="geometry">
            <mxPoint x="190" y="250" as="sourcePoint" />
            <mxPoint x="220" y="180" as="targetPoint" />
          </mxGeometry>
        </mxCell>
        <mxCell id="V21aiv9WlOXdOeAyt_kI-23" value="" style="endArrow=none;html=1;rounded=0;entryX=0;entryY=0.25;entryDx=0;entryDy=0;exitX=1;exitY=0.5;exitDx=0;exitDy=0;" edge="1" parent="1" source="V21aiv9WlOXdOeAyt_kI-17" target="V21aiv9WlOXdOeAyt_kI-1">
          <mxGeometry width="50" height="50" relative="1" as="geometry">
            <mxPoint x="200" y="260" as="sourcePoint" />
            <mxPoint x="230" y="190" as="targetPoint" />
          </mxGeometry>
        </mxCell>
        <mxCell id="V21aiv9WlOXdOeAyt_kI-24" value="" style="endArrow=none;html=1;rounded=0;entryX=1;entryY=1;entryDx=0;entryDy=0;exitX=0.25;exitY=0;exitDx=0;exitDy=0;" edge="1" parent="1" source="V21aiv9WlOXdOeAyt_kI-1" target="V21aiv9WlOXdOeAyt_kI-19">
          <mxGeometry width="50" height="50" relative="1" as="geometry">
            <mxPoint x="210" y="270" as="sourcePoint" />
            <mxPoint x="240" y="200" as="targetPoint" />
          </mxGeometry>
        </mxCell>
        <mxCell id="V21aiv9WlOXdOeAyt_kI-25" value="Dish" style="whiteSpace=wrap;html=1;aspect=fixed;" vertex="1" parent="1">
          <mxGeometry x="520" y="-35" width="80" height="80" as="geometry" />
        </mxCell>
        <mxCell id="V21aiv9WlOXdOeAyt_kI-30" value="" style="edgeStyle=orthogonalEdgeStyle;rounded=0;orthogonalLoop=1;jettySize=auto;html=1;" edge="1" parent="1" source="V21aiv9WlOXdOeAyt_kI-26" target="V21aiv9WlOXdOeAyt_kI-2">
          <mxGeometry relative="1" as="geometry" />
        </mxCell>
        <mxCell id="V21aiv9WlOXdOeAyt_kI-26" value="Reviewed In" style="rhombus;whiteSpace=wrap;html=1;" vertex="1" parent="1">
          <mxGeometry x="415" y="-30" width="70" height="70" as="geometry" />
        </mxCell>
        <mxCell id="V21aiv9WlOXdOeAyt_kI-29" value="" style="edgeStyle=orthogonalEdgeStyle;rounded=0;orthogonalLoop=1;jettySize=auto;html=1;curved=1;" edge="1" parent="1" source="V21aiv9WlOXdOeAyt_kI-28" target="V21aiv9WlOXdOeAyt_kI-3">
          <mxGeometry relative="1" as="geometry" />
        </mxCell>
        <mxCell id="V21aiv9WlOXdOeAyt_kI-28" value="Offers" style="rhombus;whiteSpace=wrap;html=1;" vertex="1" parent="1">
          <mxGeometry x="655" y="-30" width="70" height="70" as="geometry" />
        </mxCell>
        <mxCell id="V21aiv9WlOXdOeAyt_kI-31" value="" style="endArrow=none;html=1;rounded=0;exitX=1;exitY=0.5;exitDx=0;exitDy=0;entryX=0;entryY=0.5;entryDx=0;entryDy=0;" edge="1" parent="1" source="V21aiv9WlOXdOeAyt_kI-26" target="V21aiv9WlOXdOeAyt_kI-25">
          <mxGeometry width="50" height="50" relative="1" as="geometry">
            <mxPoint x="500" y="70" as="sourcePoint" />
            <mxPoint x="550" y="20" as="targetPoint" />
          </mxGeometry>
        </mxCell>
        <mxCell id="V21aiv9WlOXdOeAyt_kI-32" value="" style="endArrow=none;html=1;rounded=0;entryX=0;entryY=0.5;entryDx=0;entryDy=0;exitX=1;exitY=0.5;exitDx=0;exitDy=0;" edge="1" parent="1" source="V21aiv9WlOXdOeAyt_kI-25" target="V21aiv9WlOXdOeAyt_kI-28">
          <mxGeometry width="50" height="50" relative="1" as="geometry">
            <mxPoint x="500" y="70" as="sourcePoint" />
            <mxPoint x="550" y="20" as="targetPoint" />
          </mxGeometry>
        </mxCell>
        <mxCell id="V21aiv9WlOXdOeAyt_kI-33" value="review_id" style="ellipse;whiteSpace=wrap;html=1;" vertex="1" parent="1">
          <mxGeometry x="320" y="250" width="60" height="40" as="geometry" />
        </mxCell>
        <mxCell id="V21aiv9WlOXdOeAyt_kI-34" value="" style="endArrow=none;html=1;rounded=0;entryX=0;entryY=0.75;entryDx=0;entryDy=0;exitX=0.5;exitY=0;exitDx=0;exitDy=0;" edge="1" parent="1" source="V21aiv9WlOXdOeAyt_kI-33" target="V21aiv9WlOXdOeAyt_kI-2">
          <mxGeometry width="50" height="50" relative="1" as="geometry">
            <mxPoint x="500" y="190" as="sourcePoint" />
            <mxPoint x="380" y="55" as="targetPoint" />
          </mxGeometry>
        </mxCell>
        <mxCell id="V21aiv9WlOXdOeAyt_kI-36" value="rating" style="ellipse;whiteSpace=wrap;html=1;" vertex="1" parent="1">
          <mxGeometry x="380" y="210" width="60" height="40" as="geometry" />
        </mxCell>
        <mxCell id="V21aiv9WlOXdOeAyt_kI-37" value="" style="endArrow=none;html=1;rounded=0;entryX=0.25;entryY=1;entryDx=0;entryDy=0;exitX=0.5;exitY=0;exitDx=0;exitDy=0;" edge="1" parent="1" source="V21aiv9WlOXdOeAyt_kI-36" target="V21aiv9WlOXdOeAyt_kI-2">
          <mxGeometry width="50" height="50" relative="1" as="geometry">
            <mxPoint x="560" y="210" as="sourcePoint" />
            <mxPoint x="440" y="140" as="targetPoint" />
          </mxGeometry>
        </mxCell>
        <mxCell id="V21aiv9WlOXdOeAyt_kI-40" value="review_text" style="ellipse;whiteSpace=wrap;html=1;" vertex="1" parent="1">
          <mxGeometry x="450" y="220" width="60" height="40" as="geometry" />
        </mxCell>
        <mxCell id="V21aiv9WlOXdOeAyt_kI-41" value="" style="endArrow=none;html=1;rounded=0;entryX=0.5;entryY=1;entryDx=0;entryDy=0;exitX=0.5;exitY=0;exitDx=0;exitDy=0;" edge="1" parent="1" source="V21aiv9WlOXdOeAyt_kI-40" target="V21aiv9WlOXdOeAyt_kI-2">
          <mxGeometry width="50" height="50" relative="1" as="geometry">
            <mxPoint x="630" y="220" as="sourcePoint" />
            <mxPoint x="510" y="150" as="targetPoint" />
          </mxGeometry>
        </mxCell>
        <mxCell id="V21aiv9WlOXdOeAyt_kI-42" value="created_on" style="ellipse;whiteSpace=wrap;html=1;" vertex="1" parent="1">
          <mxGeometry x="510" y="200" width="60" height="40" as="geometry" />
        </mxCell>
        <mxCell id="V21aiv9WlOXdOeAyt_kI-43" value="" style="endArrow=none;html=1;rounded=0;entryX=1;entryY=1;entryDx=0;entryDy=0;exitX=0.5;exitY=0;exitDx=0;exitDy=0;" edge="1" parent="1" source="V21aiv9WlOXdOeAyt_kI-42" target="V21aiv9WlOXdOeAyt_kI-2">
          <mxGeometry width="50" height="50" relative="1" as="geometry">
            <mxPoint x="690" y="200" as="sourcePoint" />
            <mxPoint x="570" y="130" as="targetPoint" />
          </mxGeometry>
        </mxCell>
        <mxCell id="V21aiv9WlOXdOeAyt_kI-44" value="dish_id" style="ellipse;whiteSpace=wrap;html=1;" vertex="1" parent="1">
          <mxGeometry x="470" y="-140" width="60" height="40" as="geometry" />
        </mxCell>
        <mxCell id="V21aiv9WlOXdOeAyt_kI-45" value="" style="endArrow=none;html=1;rounded=0;entryX=0;entryY=0;entryDx=0;entryDy=0;exitX=0;exitY=1;exitDx=0;exitDy=0;" edge="1" parent="1" source="V21aiv9WlOXdOeAyt_kI-44" target="V21aiv9WlOXdOeAyt_kI-25">
          <mxGeometry width="50" height="50" relative="1" as="geometry">
            <mxPoint x="510" y="-100" as="sourcePoint" />
            <mxPoint x="530" y="-210" as="targetPoint" />
          </mxGeometry>
        </mxCell>
        <mxCell id="V21aiv9WlOXdOeAyt_kI-46" value="&lt;div&gt;title&lt;/div&gt;" style="ellipse;whiteSpace=wrap;html=1;" vertex="1" parent="1">
          <mxGeometry x="300" y="200" width="60" height="40" as="geometry" />
        </mxCell>
        <mxCell id="V21aiv9WlOXdOeAyt_kI-47" value="" style="endArrow=none;html=1;rounded=0;entryX=-0.027;entryY=0.618;entryDx=0;entryDy=0;exitX=0.5;exitY=0;exitDx=0;exitDy=0;entryPerimeter=0;" edge="1" parent="1" source="V21aiv9WlOXdOeAyt_kI-46" target="V21aiv9WlOXdOeAyt_kI-2">
          <mxGeometry width="50" height="50" relative="1" as="geometry">
            <mxPoint x="440" y="200" as="sourcePoint" />
            <mxPoint x="320" y="130" as="targetPoint" />
          </mxGeometry>
        </mxCell>
        <mxCell id="V21aiv9WlOXdOeAyt_kI-48" value="name" style="ellipse;whiteSpace=wrap;html=1;" vertex="1" parent="1">
          <mxGeometry x="530" y="-150" width="60" height="40" as="geometry" />
        </mxCell>
        <mxCell id="V21aiv9WlOXdOeAyt_kI-49" value="" style="endArrow=none;html=1;rounded=0;entryX=0.25;entryY=0;entryDx=0;entryDy=0;exitX=0;exitY=1;exitDx=0;exitDy=0;" edge="1" parent="1" source="V21aiv9WlOXdOeAyt_kI-48" target="V21aiv9WlOXdOeAyt_kI-25">
          <mxGeometry width="50" height="50" relative="1" as="geometry">
            <mxPoint x="570" y="-110" as="sourcePoint" />
            <mxPoint x="580" y="-45" as="targetPoint" />
          </mxGeometry>
        </mxCell>
        <mxCell id="V21aiv9WlOXdOeAyt_kI-50" value="description" style="ellipse;whiteSpace=wrap;html=1;" vertex="1" parent="1">
          <mxGeometry x="595" y="-150" width="60" height="40" as="geometry" />
        </mxCell>
        <mxCell id="V21aiv9WlOXdOeAyt_kI-51" value="" style="endArrow=none;html=1;rounded=0;entryX=0.75;entryY=0;entryDx=0;entryDy=0;exitX=0;exitY=1;exitDx=0;exitDy=0;" edge="1" parent="1" source="V21aiv9WlOXdOeAyt_kI-50" target="V21aiv9WlOXdOeAyt_kI-25">
          <mxGeometry width="50" height="50" relative="1" as="geometry">
            <mxPoint x="635" y="-110" as="sourcePoint" />
            <mxPoint x="645" y="-45" as="targetPoint" />
          </mxGeometry>
        </mxCell>
        <mxCell id="V21aiv9WlOXdOeAyt_kI-52" value="price" style="ellipse;whiteSpace=wrap;html=1;" vertex="1" parent="1">
          <mxGeometry x="655" y="-150" width="60" height="40" as="geometry" />
        </mxCell>
        <mxCell id="V21aiv9WlOXdOeAyt_kI-53" value="" style="endArrow=none;html=1;rounded=0;entryX=0.967;entryY=0.092;entryDx=0;entryDy=0;exitX=0;exitY=1;exitDx=0;exitDy=0;entryPerimeter=0;" edge="1" parent="1" source="V21aiv9WlOXdOeAyt_kI-52" target="V21aiv9WlOXdOeAyt_kI-25">
          <mxGeometry width="50" height="50" relative="1" as="geometry">
            <mxPoint x="695" y="-110" as="sourcePoint" />
            <mxPoint x="705" y="-45" as="targetPoint" />
          </mxGeometry>
        </mxCell>
        <mxCell id="V21aiv9WlOXdOeAyt_kI-54" value="restauraunt_id" style="ellipse;whiteSpace=wrap;html=1;" vertex="1" parent="1">
          <mxGeometry x="740" y="5" width="90" height="40" as="geometry" />
        </mxCell>
        <mxCell id="V21aiv9WlOXdOeAyt_kI-55" value="" style="endArrow=none;html=1;rounded=0;entryX=1;entryY=0;entryDx=0;entryDy=0;exitX=0.5;exitY=1;exitDx=0;exitDy=0;" edge="1" parent="1" source="V21aiv9WlOXdOeAyt_kI-54" target="V21aiv9WlOXdOeAyt_kI-3">
          <mxGeometry width="50" height="50" relative="1" as="geometry">
            <mxPoint x="790" y="15" as="sourcePoint" />
            <mxPoint x="800" y="80" as="targetPoint" />
          </mxGeometry>
        </mxCell>
        <mxCell id="V21aiv9WlOXdOeAyt_kI-56" value="name" style="ellipse;whiteSpace=wrap;html=1;" vertex="1" parent="1">
          <mxGeometry x="750" y="55" width="70" height="40" as="geometry" />
        </mxCell>
        <mxCell id="V21aiv9WlOXdOeAyt_kI-57" value="" style="endArrow=none;html=1;rounded=0;entryX=1;entryY=0.25;entryDx=0;entryDy=0;exitX=0.5;exitY=1;exitDx=0;exitDy=0;" edge="1" parent="1" source="V21aiv9WlOXdOeAyt_kI-56" target="V21aiv9WlOXdOeAyt_kI-3">
          <mxGeometry width="50" height="50" relative="1" as="geometry">
            <mxPoint x="800" y="65" as="sourcePoint" />
            <mxPoint x="740" y="130" as="targetPoint" />
          </mxGeometry>
        </mxCell>
        <mxCell id="V21aiv9WlOXdOeAyt_kI-58" value="description" style="ellipse;whiteSpace=wrap;html=1;" vertex="1" parent="1">
          <mxGeometry x="800" y="97.5" width="70" height="40" as="geometry" />
        </mxCell>
        <mxCell id="V21aiv9WlOXdOeAyt_kI-59" value="" style="endArrow=none;html=1;rounded=0;entryX=1;entryY=0.5;entryDx=0;entryDy=0;exitX=0;exitY=0.5;exitDx=0;exitDy=0;" edge="1" parent="1" source="V21aiv9WlOXdOeAyt_kI-58" target="V21aiv9WlOXdOeAyt_kI-3">
          <mxGeometry width="50" height="50" relative="1" as="geometry">
            <mxPoint x="850" y="107.5" as="sourcePoint" />
            <mxPoint x="780" y="142.5" as="targetPoint" />
          </mxGeometry>
        </mxCell>
        <mxCell id="V21aiv9WlOXdOeAyt_kI-60" value="address" style="ellipse;whiteSpace=wrap;html=1;" vertex="1" parent="1">
          <mxGeometry x="800" y="137.5" width="70" height="40" as="geometry" />
        </mxCell>
        <mxCell id="V21aiv9WlOXdOeAyt_kI-61" value="" style="endArrow=none;html=1;rounded=0;entryX=1;entryY=0.75;entryDx=0;entryDy=0;exitX=0;exitY=0.5;exitDx=0;exitDy=0;" edge="1" parent="1" source="V21aiv9WlOXdOeAyt_kI-60" target="V21aiv9WlOXdOeAyt_kI-3">
          <mxGeometry width="50" height="50" relative="1" as="geometry">
            <mxPoint x="850" y="147.5" as="sourcePoint" />
            <mxPoint x="780" y="182.5" as="targetPoint" />
          </mxGeometry>
        </mxCell>
        <mxCell id="V21aiv9WlOXdOeAyt_kI-62" value="city" style="ellipse;whiteSpace=wrap;html=1;" vertex="1" parent="1">
          <mxGeometry x="800" y="177.5" width="70" height="40" as="geometry" />
        </mxCell>
        <mxCell id="V21aiv9WlOXdOeAyt_kI-63" value="" style="endArrow=none;html=1;rounded=0;entryX=1;entryY=1;entryDx=0;entryDy=0;exitX=0;exitY=0.5;exitDx=0;exitDy=0;" edge="1" parent="1" source="V21aiv9WlOXdOeAyt_kI-62" target="V21aiv9WlOXdOeAyt_kI-3">
          <mxGeometry width="50" height="50" relative="1" as="geometry">
            <mxPoint x="850" y="187.5" as="sourcePoint" />
            <mxPoint x="780" y="222.5" as="targetPoint" />
          </mxGeometry>
        </mxCell>
        <mxCell id="V21aiv9WlOXdOeAyt_kI-64" value="created_on" style="ellipse;whiteSpace=wrap;html=1;" vertex="1" parent="1">
          <mxGeometry x="790" y="220" width="70" height="40" as="geometry" />
        </mxCell>
        <mxCell id="V21aiv9WlOXdOeAyt_kI-65" value="" style="endArrow=none;html=1;rounded=0;entryX=0.83;entryY=0.976;entryDx=0;entryDy=0;exitX=0.05;exitY=0.213;exitDx=0;exitDy=0;exitPerimeter=0;entryPerimeter=0;" edge="1" parent="1" source="V21aiv9WlOXdOeAyt_kI-64" target="V21aiv9WlOXdOeAyt_kI-3">
          <mxGeometry width="50" height="50" relative="1" as="geometry">
            <mxPoint x="840" y="230" as="sourcePoint" />
            <mxPoint x="770" y="265" as="targetPoint" />
          </mxGeometry>
        </mxCell>
        <mxCell id="V21aiv9WlOXdOeAyt_kI-66" value="tag_id" style="ellipse;whiteSpace=wrap;html=1;" vertex="1" parent="1">
          <mxGeometry x="595" y="450" width="80" height="50" as="geometry" />
        </mxCell>
        <mxCell id="V21aiv9WlOXdOeAyt_kI-67" value="name" style="ellipse;whiteSpace=wrap;html=1;" vertex="1" parent="1">
          <mxGeometry x="710" y="460" width="80" height="50" as="geometry" />
        </mxCell>
        <mxCell id="V21aiv9WlOXdOeAyt_kI-68" value="" style="endArrow=none;html=1;rounded=0;entryX=0;entryY=1;entryDx=0;entryDy=0;exitX=0.5;exitY=0;exitDx=0;exitDy=0;" edge="1" parent="1" source="V21aiv9WlOXdOeAyt_kI-66" target="V21aiv9WlOXdOeAyt_kI-6">
          <mxGeometry width="50" height="50" relative="1" as="geometry">
            <mxPoint x="590" y="500" as="sourcePoint" />
            <mxPoint x="640" y="450" as="targetPoint" />
          </mxGeometry>
        </mxCell>
        <mxCell id="V21aiv9WlOXdOeAyt_kI-69" value="" style="endArrow=none;html=1;rounded=0;entryX=0.75;entryY=1;entryDx=0;entryDy=0;exitX=0.5;exitY=0;exitDx=0;exitDy=0;" edge="1" parent="1" source="V21aiv9WlOXdOeAyt_kI-67" target="V21aiv9WlOXdOeAyt_kI-6">
          <mxGeometry width="50" height="50" relative="1" as="geometry">
            <mxPoint x="590" y="500" as="sourcePoint" />
            <mxPoint x="640" y="450" as="targetPoint" />
          </mxGeometry>
        </mxCell>
      </root>
    </mxGraphModel>
  </diagram>
</mxfile>
